<svg width="400" height="400" viewBox="0 0 400 400" fill="none" xmlns="http://www.w3.org/2000/svg">
<path d="M223.333 33.3333H100C91.1594 33.3333 82.681 36.8452 76.4298 43.0964C70.1785 49.3477 66.6667 57.8261 66.6667 66.6667V333.333C66.6667 342.174 70.1785 350.652 76.4298 356.904C82.681 363.155 91.1594 366.667 100 366.667H300C308.841 366.667 317.319 363.155 323.57 356.904C329.821 350.652 333.333 342.174 333.333 333.333V210" stroke="black" stroke-width="2" stroke-linecap="round" stroke-linejoin="round"/>
<path d="M33.3333 100H100" stroke="black" stroke-width="2" stroke-linecap="round" stroke-linejoin="round"/>
<path d="M33.3333 166.667H100" stroke="black" stroke-width="2" stroke-linecap="round" stroke-linejoin="round"/>
<path d="M33.3333 233.333H100" stroke="black" stroke-width="2" stroke-linecap="round" stroke-linejoin="round"/>
<path d="M33.3333 300H100" stroke="black" stroke-width="2" stroke-linecap="round" stroke-linejoin="round"/>
<path d="M356.3 93.7667C362.939 87.1274 366.669 78.1227 366.669 68.7333C366.669 59.344 362.939 50.3393 356.3 43.7C349.661 37.0607 340.656 33.3309 331.267 33.3309C321.877 33.3309 312.873 37.0607 306.233 43.7L222.733 127.233C218.771 131.194 215.87 136.089 214.3 141.467L200.35 189.3C199.932 190.734 199.907 192.254 200.277 193.702C200.648 195.149 201.401 196.47 202.457 197.526C203.514 198.582 204.835 199.335 206.282 199.706C207.729 200.077 209.249 200.052 210.683 199.633L258.517 185.683C263.894 184.113 268.79 181.213 272.75 177.25L356.3 93.7667Z" stroke="black" stroke-width="2" stroke-linecap="round" stroke-linejoin="round"/>
</svg>
